<?xml version="1.0" encoding="utf-8"?>
<!-- Generator: Adobe Illustrator 16.0.0, SVG Export Plug-In . SVG Version: 6.00 Build 0)  -->
<!DOCTYPE svg PUBLIC "-//W3C//DTD SVG 1.1//EN" "http://www.w3.org/Graphics/SVG/1.1/DTD/svg11.dtd">
<svg version="1.1" xmlns="http://www.w3.org/2000/svg" xmlns:xlink="http://www.w3.org/1999/xlink" x="0px" y="0px" width="271px"
	 height="47px" viewBox="0 0 271 47" enable-background="new 0 0 271 47" xml:space="preserve">
<g id="Layer_6" display="none">
	<rect x="-11.666" y="-28.333" display="inline" fill="#ED1F24" width="304.667" height="96"/>
</g>
<g id="Layer_1_copy" display="none">
	<rect x="5.199" y="8.067" display="inline" fill="none" width="258.966" height="30.532"/>
	<text transform="matrix(1 0 0 1 8.8052 34.7163)" display="inline" font-family="'SegoeUIHistoric'" font-size="36">KODINGTORIAL</text>
	<g id="Layer_5" display="inline">
	</g>
</g>
<g id="Layer_1">
	<g>
		<path fill="#2961AD" d="M8.247,10.914v26.4h13.65l-1.74-2.58h-9.48v-21.24h19.91v21.24h-5l2.36,2.58h5.05v-26.4H8.247z"/>
		<path fill="#2861AD" d="M29.447,34.734l-10.85-11.041l9.49-9.15h-3.22l-8.27,8.31c-0.25,0.25-0.45,0.46-0.59,0.66h-0.06v-8.97
			h-2.6v19.09h2.6v-9.4h0.06c0.07,0.11,0.27,0.34,0.59,0.67l8.99,9.831l2.36,2.58h4.04L29.447,34.734z"/>
	</g>
	<path fill="#2561AD" d="M61.617,23.333c-0.01-0.81-0.09-1.59-0.21-2.33c-0.4-2.53-1.4-4.67-2.97-6.4
		c-2.13-2.34-4.93-3.52-8.41-3.52c-3.78,0-6.76,1.21-8.95,3.62c-1.54,1.7-2.54,3.79-2.99,6.3c-0.14,0.74-0.23,1.51-0.27,2.33
		c-0.02,0.35-0.03,0.71-0.03,1.08c0,3.77,1.08,6.84,3.23,9.189c2.15,2.36,5.01,3.53,8.58,3.53c3.66,0,6.58-1.189,8.76-3.58
		c2.18-2.39,3.27-5.64,3.27-9.76C61.627,23.633,61.627,23.483,61.617,23.333z M56.137,31.774c-1.59,1.81-3.77,2.71-6.54,2.71
		c-2.59,0-4.69-0.95-6.3-2.841c-1.61-1.89-2.41-4.39-2.41-7.5c0-0.27,0.01-0.54,0.03-0.81c0.03-0.82,0.13-1.6,0.3-2.33
		c0.37-1.7,1.09-3.16,2.14-4.38c1.66-1.91,3.81-2.86,6.46-2.86c2.71,0,4.85,0.9,6.39,2.72c1.01,1.19,1.69,2.69,2.03,4.52
		c0.15,0.72,0.24,1.5,0.26,2.33c0.02,0.28,0.03,0.57,0.03,0.87C58.527,27.444,57.737,29.973,56.137,31.774z"/>
	<path fill="#2561AD" d="M86.857,23.333c-0.01-0.82-0.08-1.6-0.19-2.33c-0.94-6.33-5.31-9.49-13.12-9.49h-6.97v25.2h6.68
		c4.14,0,7.44-1.18,9.91-3.54c2.47-2.359,3.7-5.49,3.7-9.38C86.867,23.633,86.867,23.483,86.857,23.333z M81.017,31.393
		c-1.84,1.771-4.42,2.65-7.72,2.65h-3.76v-19.86h3.94c5.76,0,9.11,2.28,10.03,6.82c0.15,0.72,0.24,1.5,0.26,2.33
		c0.01,0.18,0.01,0.35,0.01,0.53C83.777,27.114,82.857,29.624,81.017,31.393z"/>
	<path fill="#2561AD" d="M91.827,11.514v25.2h2.95v-25.2H91.827z"/>
	<path fill="#2561AD" d="M118.767,11.514v17.75c0,1.75,0.06,2.98,0.18,3.71h-0.07c-0.15-0.31-0.49-0.87-1.02-1.689l-5.07-7.95
		l-1.49-2.33l-6.06-9.49h-3.83v25.2h2.95v-18.21c0-1.77-0.05-2.92-0.14-3.46h0.1c0.22,0.55,0.49,1.08,0.81,1.58l2.83,4.38l1.51,2.33
		l8.64,13.38h3.62v-25.2H118.767z"/>
	<path fill="#2561AD" d="M138.707,23.563v2.68h5.52v7.06c-1.439,0.79-3.149,1.181-5.119,1.181c-2.87,0-5.141-0.91-6.82-2.73
		c-1.67-1.83-2.51-4.33-2.51-7.52c0-0.31,0.01-0.61,0.03-0.9c0.05-0.82,0.16-1.59,0.35-2.33c0.42-1.66,1.19-3.11,2.32-4.33
		c1.81-1.94,4.12-2.91,6.95-2.91c2.79,0,5.2,0.64,7.24,1.93v-3.27c-1.86-0.89-4.17-1.34-6.91-1.34c-3.78,0-6.91,1.25-9.38,3.76
		c-1.69,1.72-2.81,3.77-3.34,6.16c-0.16,0.74-0.27,1.52-0.32,2.33c-0.03,0.36-0.04,0.73-0.04,1.11c0,3.82,1.11,6.89,3.34,9.21
		c2.22,2.319,5.12,3.479,8.72,3.479c3.1,0,5.91-0.71,8.439-2.14v-11.43H138.707z"/>
	<path fill="#2561AD" d="M149.587,11.514v2.67h7.26v22.53h2.95v-22.53h7.28v-2.67H149.587z"/>
	<path fill="#2561AD" d="M191.587,23.333c-0.01-0.81-0.09-1.59-0.21-2.33c-0.4-2.53-1.39-4.67-2.97-6.4
		c-2.13-2.34-4.931-3.52-8.41-3.52c-3.78,0-6.76,1.21-8.95,3.62c-1.54,1.7-2.54,3.79-3,6.3c-0.13,0.74-0.22,1.51-0.26,2.33
		c-0.021,0.35-0.03,0.71-0.03,1.08c0,3.77,1.08,6.84,3.23,9.189c2.149,2.36,5.01,3.53,8.59,3.53c3.649,0,6.57-1.189,8.75-3.58
		c2.18-2.39,3.27-5.64,3.27-9.76C191.597,23.633,191.597,23.483,191.587,23.333z M186.117,31.774c-1.601,1.81-3.78,2.71-6.54,2.71
		c-2.59,0-4.69-0.95-6.3-2.841c-1.62-1.89-2.42-4.39-2.42-7.5c0-0.27,0.01-0.54,0.029-0.81c0.03-0.82,0.13-1.6,0.3-2.33
		c0.381-1.7,1.091-3.16,2.15-4.38c1.65-1.91,3.8-2.86,6.45-2.86c2.72,0,4.85,0.9,6.399,2.72c1,1.19,1.681,2.69,2.03,4.52
		c0.15,0.72,0.24,1.5,0.26,2.33c0.021,0.28,0.03,0.57,0.03,0.87C188.507,27.444,187.707,29.973,186.117,31.774z"/>
	<path fill="#2561AD" d="M209.897,29.143c-0.341-0.55-0.65-1.04-0.921-1.449c-0.279-0.42-0.56-0.79-0.84-1.12
		c-0.279-0.33-0.58-0.61-0.89-0.85c-0.311-0.24-0.67-0.46-1.1-0.64v-0.07c0.859-0.23,1.63-0.54,2.319-0.95
		c0.37-0.22,0.71-0.46,1.021-0.73c0.27-0.22,0.51-0.47,0.729-0.73c0.41-0.48,0.74-1.01,0.98-1.6c0.06-0.12,0.109-0.24,0.149-0.36
		c0.261-0.74,0.391-1.54,0.391-2.42c0-1.12-0.19-2.11-0.58-2.94c-0.38-0.84-0.92-1.54-1.601-2.1c-0.689-0.57-1.5-0.99-2.43-1.26
		c-0.93-0.28-1.95-0.41-3.05-0.41h-7.521v25.2h2.95v-10.72h2.43c0.551,0,1.04,0.07,1.48,0.2c0.44,0.14,0.85,0.35,1.23,0.64
		c0.38,0.3,0.75,0.67,1.119,1.14c0.36,0.46,0.74,1.021,1.12,1.681l4.221,7.06h3.52L209.897,29.143z M199.507,14.184h4.04
		c1.66,0,2.92,0.38,3.79,1.13c0.87,0.76,1.311,1.81,1.311,3.16c0,0.75-0.131,1.42-0.391,2.03c-0.07,0.17-0.149,0.34-0.25,0.5
		c-0.22,0.39-0.49,0.73-0.82,1.03c-0.46,0.41-1,0.73-1.619,0.95c-0.631,0.23-1.311,0.34-2.051,0.34h-4.01V14.184z"/>
	<path fill="#2561AD" d="M218.087,11.514v25.2h2.95v-25.2H218.087z"/>
	<path fill="#2561AD" d="M242.027,23.333l-0.9-2.33l-3.65-9.49h-3.06l-3.64,9.49l-0.9,2.33l-5.13,13.38h3.29l2.51-7.06h10.69
		l2.67,7.06h3.27L242.027,23.333z M231.537,26.994l1.34-3.66l0.85-2.33l1.73-4.75c0.15-0.41,0.28-0.97,0.4-1.69h0.069
		c0.13,0.78,0.26,1.34,0.391,1.69l1.75,4.75l0.85,2.33l1.35,3.66H231.537z"/>
	<path fill="#2561AD" d="M253.837,34.043v-22.53h-2.95v25.2h13.08v-2.67H253.837z"/>
</g>
<g id="Layer_3">
	<path fill="#FFFFFF" stroke="#FFFFFF" stroke-width="0.5" stroke-miterlimit="10" d="M38.087,21.003h3.13
		c-0.17,0.73-0.27,1.51-0.3,2.33h-3.1C37.857,22.514,37.947,21.744,38.087,21.003z"/>
	<path fill="#FFFFFF" stroke="#FFFFFF" stroke-width="0.5" stroke-miterlimit="10" d="M61.407,21.003c0.12,0.74,0.2,1.52,0.21,2.33
		h-3.12c-0.02-0.83-0.11-1.61-0.26-2.33H61.407z"/>
	
		<rect x="66.577" y="21.003" fill="#FFFFFF" stroke="#FFFFFF" stroke-width="0.5" stroke-miterlimit="10" width="2.96" height="2.33"/>
	<path fill="#FFFFFF" stroke="#FFFFFF" stroke-width="0.5" stroke-miterlimit="10" d="M86.667,21.003c0.11,0.73,0.18,1.51,0.19,2.33
		h-3.09c-0.02-0.83-0.11-1.61-0.26-2.33H86.667z"/>
	
		<rect x="91.827" y="21.003" fill="#FFFFFF" stroke="#FFFFFF" stroke-width="0.5" stroke-miterlimit="10" width="2.95" height="2.33"/>
	
		<rect x="101.407" y="21.003" fill="#FFFFFF" stroke="#FFFFFF" stroke-width="0.5" stroke-miterlimit="10" width="2.95" height="2.33"/>
	<polygon fill="#FFFFFF" stroke="#FFFFFF" stroke-width="0.5" stroke-miterlimit="10" points="111.297,21.003 112.787,23.333 
		109.467,23.333 107.957,21.003 	"/>
	
		<rect x="118.767" y="21.003" fill="#FFFFFF" stroke="#FFFFFF" stroke-width="0.5" stroke-miterlimit="10" width="2.96" height="2.33"/>
	<path fill="#FFFFFF" stroke="#FFFFFF" stroke-width="0.5" stroke-miterlimit="10" d="M127.037,21.003h3.12
		c-0.19,0.74-0.3,1.51-0.35,2.33h-3.09C126.767,22.523,126.877,21.744,127.037,21.003z"/>
	
		<rect x="156.847" y="21.003" fill="#FFFFFF" stroke="#FFFFFF" stroke-width="0.5" stroke-miterlimit="10" width="2.95" height="2.33"/>
	<path fill="#FFFFFF" stroke="#FFFFFF" stroke-width="0.5" stroke-miterlimit="10" d="M168.047,21.003h3.14
		c-0.17,0.73-0.27,1.51-0.3,2.33h-3.1C167.827,22.514,167.917,21.744,168.047,21.003z"/>
	<path fill="#FFFFFF" stroke="#FFFFFF" stroke-width="0.5" stroke-miterlimit="10" d="M191.377,21.003c0.12,0.74,0.2,1.52,0.21,2.33
		h-3.11c-0.02-0.83-0.109-1.61-0.26-2.33H191.377z"/>
	<path fill="#FFFFFF" stroke="#FFFFFF" stroke-width="0.5" stroke-miterlimit="10" d="M208.007,21.003h3.19
		c-0.24,0.59-0.57,1.12-0.98,1.6c-0.22,0.26-0.46,0.51-0.729,0.73h-12.931v-2.33h2.95v2.32h4.01c0.74,0,1.42-0.11,2.051-0.34
		c0.619-0.22,1.159-0.54,1.619-0.95C207.517,21.733,207.787,21.394,208.007,21.003z"/>
	
		<rect x="218.087" y="21.003" fill="#FFFFFF" stroke="#FFFFFF" stroke-width="0.5" stroke-miterlimit="10" width="2.95" height="2.33"/>
	<polygon fill="#FFFFFF" stroke="#FFFFFF" stroke-width="0.5" stroke-miterlimit="10" points="230.777,21.003 233.727,21.003 
		232.877,23.333 229.877,23.333 	"/>
	<polygon fill="#FFFFFF" stroke="#FFFFFF" stroke-width="0.5" stroke-miterlimit="10" points="241.127,21.003 242.027,23.333 
		238.917,23.333 238.067,21.003 	"/>
	
		<rect x="250.887" y="21.003" fill="#FFFFFF" stroke="#FFFFFF" stroke-width="0.5" stroke-miterlimit="10" width="2.95" height="2.33"/>
</g>
</svg>
